<?xml version="1.0" encoding="utf-8" ?><svg xmlns="http://www.w3.org/2000/svg" xmlns:xlink="http://www.w3.org/1999/xlink" width="1024" height="1024" viewBox="0 0 1024 1024"><path fill="white" d="M0 0L1024 0L1024 1024L0 1024L0 0Z"/><path fill="#B69653" d="M511.554 224.456C519.047 229.888 528.378 239.483 535.581 245.908C549.916 258.694 564.906 271.128 578.529 284.664C590.981 278.053 603.911 270.846 615.68 263.078C617.37 267.868 618.505 272.922 619.901 277.813L627.488 303.442C658.794 303.996 690.187 306.388 721.463 308.012C721.683 325.614 722.561 343.244 723.13 360.84C723.57 374.435 723.625 388.051 724.405 401.635C737.555 404.334 750.756 409.411 763.625 413.322C756.137 423.592 750.417 435.094 743.209 445.566C749.035 452.846 756.52 459.486 762.984 466.254C777.017 481.065 791.151 495.782 805.383 510.402C784.241 531.244 764.163 553.163 743.303 574.285C749.32 585.477 756.464 596.959 763.836 607.309C750.764 611.73 737.263 615.603 724.033 619.55C724.076 650.656 722.247 681.949 720.909 713.031C689.63 715.337 658.201 715.729 626.891 717.531C625.826 722.82 623.878 728.031 622.38 733.22C620.148 740.946 618.191 748.752 615.626 756.378C603.081 749.353 591.03 741.17 578.215 734.678C571.658 741.913 563.259 748.34 555.943 754.861L511.736 794.437C504.211 786.849 495.679 779.972 487.65 772.902C473.296 760.316 459.051 747.606 444.915 734.774C432.562 742.285 419.8 749.094 407.471 756.642C404.004 743.577 400.389 730.552 396.628 717.569C388.057 716.468 379.158 716.528 370.516 716.195L329.731 714.292C320.688 713.901 311.525 713.884 302.526 712.905C300.612 681.891 300.456 650.75 298.918 619.715C286.61 616.099 271.252 612.125 259.67 607.1C266.983 596.548 273.126 585.2 280.179 574.469C275.186 567.907 268.301 562.135 262.542 556.167C247.623 540.748 232.586 525.443 217.432 510.255C224.943 503.078 232.028 495.429 239.269 487.98C252.849 474.039 266.357 460.028 279.793 445.949C273.455 434.885 266.512 424.121 259.77 413.297C272.999 409.681 286.101 405.448 299.223 401.457C300.203 370.284 300.492 339.049 301.837 307.894C333.3 306.801 364.699 304.166 396.177 303.43C399.329 289.809 403.785 276.245 407.471 262.731C420.125 269.487 432.093 277.535 444.775 284.314C451.96 278.336 458.819 271.813 465.849 265.639C481.313 252.168 496.55 238.438 511.554 224.456Z"/><path fill="white" d="M411.92 273.682C418.926 276.052 425.645 281.821 432.007 285.648L482.324 316.014C491.938 321.818 501.497 328.352 511.657 333.121C522.911 327.975 533.769 320.719 544.302 314.226L587.466 287.848C595.179 283.158 603.244 277.279 611.54 273.821C615.911 288.012 619.147 302.882 622.78 317.293L639.155 381.26C640.82 383.016 642.227 384.4 644.484 385.348C653.759 389.247 665.622 391.809 675.371 394.696C701.134 402.323 727.1 409.3 752.783 417.192C743.161 433.462 732.217 449.169 721.692 464.87C711.733 479.853 701.926 494.935 692.27 510.115C712.172 541.454 733.029 572.151 753.069 603.405C743.024 606.904 732.565 609.476 722.358 612.487L653.399 632.659C650.02 633.655 642.778 635.136 640.623 637.971C636.551 643.327 619.549 714.405 616.423 726.328C615.213 730.945 613.201 741.728 611.115 745.278C611.002 745.47 610.881 745.657 610.764 745.846C596.374 736.275 581.215 727.682 566.579 718.459C555.443 711.417 544.237 704.485 532.962 697.666C526.005 693.448 518.996 688.916 511.66 685.406C502.841 689.043 491.003 697.27 482.66 702.348C458.994 716.753 435.727 731.77 411.978 746.056C405.44 720.019 398.758 694.018 391.932 668.054C389.478 658.931 387.908 648.965 384.476 640.22C383.778 638.442 382.478 637.202 381.138 635.887C355.562 628.182 329.91 620.727 304.187 613.525C294.167 610.644 279.41 607.436 270.181 603.511C281.093 585.298 293.33 567.84 305.087 550.169C313.902 536.921 322.271 523.38 331.091 510.142C323.331 498.823 316.06 487.121 308.569 475.617L285.188 440.361C280.168 432.727 275.41 424.909 270.154 417.433C279.93 413.701 290.409 411.188 300.483 408.307C317.606 403.558 334.69 398.67 351.734 393.642C360.693 391.076 370.622 389.096 379.12 385.301C381.111 384.412 382.595 382.777 384.101 381.247C386.955 372.551 388.808 363.365 391.141 354.496C398.215 327.604 404.42 300.459 411.92 273.682Z"/><path fill="white" d="M416.942 285.668C444.823 302.943 473.695 319.1 501.304 336.684C502.257 339.265 503.049 341.926 503.898 344.544C506.437 341.705 509.149 338.993 511.778 336.235C514.336 338.909 516.925 341.552 519.546 344.165L521.361 337.57C525.405 333.307 542.28 324.446 548.297 320.819C567.596 309.185 586.737 297.209 606.232 285.907C610.093 298.562 613.021 311.574 616.264 324.403L630.571 380.371C629.098 382.655 627.64 384.861 626.571 387.372C630.418 387.1 634.262 386.781 638.102 386.415C637.773 390.054 637.228 393.807 637.682 397.447L643.706 393.995C666.53 400.385 689.302 406.953 712.022 413.7C721.443 416.449 730.908 419.679 740.442 421.967C730.813 437.654 720.126 452.861 710.013 468.259C702.932 479.04 696.195 490.894 688.235 501.01L679.459 502.911C682.447 505.378 685.642 507.776 688.345 510.55C685.643 512.838 682.844 515.069 680.238 517.463C682.961 518.074 685.679 518.717 688.428 519.207L716.021 561.373C724.211 573.836 732.723 586.231 740.357 599.04L678.407 617.033C667.06 620.351 655.595 624.268 644.095 626.962C641.842 625.515 639.666 624.187 637.229 623.063C637.484 626.903 637.793 630.74 638.158 634.572C634.351 634.31 630.526 633.963 626.712 633.86L630.557 640.724C622.206 671.503 615.035 702.724 606.113 733.321C587.41 722.382 569.062 710.709 550.666 699.262C541.18 693.36 531.761 687.159 521.953 681.801C521.327 679.278 520.674 676.803 519.861 674.333C516.915 676.841 514.319 680.28 511.683 683.145C509.517 680.531 506.314 675.785 503.099 674.507C502.369 676.934 502.007 679.384 501.608 681.881C490.196 687.699 479.236 695.053 468.373 701.832C451.46 712.582 434.389 723.081 417.165 733.327C411.091 711.786 405.862 689.941 400.213 668.278C397.778 658.943 395.614 649.504 392.659 640.317C394.092 638.359 395.239 636.203 396.446 634.101C393.858 632.98 388.438 634.104 385.401 634.049C385.627 630.483 385.817 626.915 385.973 623.344C383.479 624.323 381.037 625.618 378.614 626.77L282.822 598.959C288.826 587.909 296.441 577.395 303.397 566.907C313.924 551.079 324.342 535.179 334.651 519.208C337.466 518.864 340.215 518.14 342.97 517.481L335.059 510.232C337.708 507.863 340.344 505.48 342.967 503.082C340.283 502.414 337.613 501.815 334.893 501.307L304.231 454.348C297.13 443.67 289.248 433.025 282.92 421.877C293.547 418.378 304.446 415.544 315.19 412.416C336.6 406.186 358.054 400.112 379.552 394.195L385.452 397.477C386.448 394.481 385.471 389.647 385.226 386.443C389.024 387.099 393.088 387.055 396.941 387.257C395.833 384.86 394.364 382.658 392.968 380.421C400.078 348.694 408.712 317.132 416.942 285.668Z"/><path d="M680.238 517.463C682.961 518.074 685.679 518.717 688.428 519.207L716.021 561.373C724.211 573.836 732.723 586.231 740.357 599.04L678.407 617.033C667.06 620.351 655.595 624.268 644.095 626.962C641.842 625.515 639.666 624.187 637.229 623.063C634.556 607.008 631.98 590.694 630.116 574.53L660.406 574.828C661.48 573.07 662.656 571.361 663.785 569.636C657.46 561.54 649.28 554.468 642.11 547.079C643.923 544.771 677.371 518.945 680.238 517.463Z"/><path d="M416.942 285.668C444.823 302.943 473.695 319.1 501.304 336.684C502.257 339.265 503.049 341.926 503.898 344.544C493.879 356.909 484.285 369.935 473.692 381.793C466.172 374.851 458.775 367.607 450.858 361.123C448.982 362.012 447.218 363.186 445.439 364.257L445.592 375.74C445.444 381.711 445.585 387.668 445.712 393.638C433.997 392.661 422.233 390.58 410.572 388.999C406.284 388.417 401.03 388.428 396.941 387.257C395.833 384.86 394.364 382.658 392.968 380.421C400.078 348.694 408.712 317.132 416.942 285.668Z"/><path d="M521.361 337.57C525.405 333.307 542.28 324.446 548.297 320.819C567.596 309.185 586.737 297.209 606.232 285.907C610.093 298.562 613.021 311.574 616.264 324.403L630.571 380.371C629.098 382.655 627.64 384.861 626.571 387.372C610.417 389.474 593.801 392.559 577.557 393.407C577.763 383.58 577.884 373.751 577.921 363.921L572.452 360.977C564.316 367.055 557.297 375.047 549.561 381.692C543.131 374.762 537.533 366.885 531.629 359.499C527.673 354.548 522.872 349.52 519.546 344.165L521.361 337.57Z"/><path d="M342.97 517.481C349.852 521.68 356.281 527.441 362.659 532.392C368.743 537.114 375.562 541.758 381.191 546.986C373.946 554.484 366.282 561.807 359.365 569.589C360.427 571.367 361.433 573.178 362.727 574.8C372.812 574.826 382.897 574.744 392.981 574.554C392.888 578.721 387.294 620.863 385.973 623.344C383.479 624.323 381.037 625.618 378.614 626.77L282.822 598.959C288.826 587.909 296.441 577.395 303.397 566.907C313.924 551.079 324.342 535.179 334.651 519.208C337.466 518.864 340.215 518.14 342.97 517.481Z"/><path d="M282.92 421.877C293.547 418.378 304.446 415.544 315.19 412.416C336.6 406.186 358.054 400.112 379.552 394.195L385.452 397.477C388.054 399.997 391.853 439.333 393.495 446.038L363.031 445.832L359.747 451.464C366.166 459.436 374.301 466.092 381.29 473.57C375.968 478.3 370.042 482.448 364.404 486.8C357.321 492.267 350.336 498.007 342.967 503.082C340.283 502.414 337.613 501.815 334.893 501.307L304.231 454.348C297.13 443.67 289.248 433.025 282.92 421.877Z"/><path d="M643.706 393.995C666.53 400.385 689.302 406.953 712.022 413.7C721.443 416.449 730.908 419.679 740.442 421.967C730.813 437.654 720.126 452.861 710.013 468.259C702.932 479.04 696.195 490.894 688.235 501.01L679.459 502.911C673.767 499.056 668.354 494.165 662.909 489.932C656.069 484.615 648.515 479.502 642.267 473.513C649.305 466.05 657.22 459.41 663.955 451.666L660.614 445.999L629.838 446.001C630.442 440.088 636.206 399.189 637.682 397.447L643.706 393.995Z"/><path d="M396.446 634.101C398.408 632.756 439.958 627.704 445.485 627.118C445.5 630.805 445.362 634.568 445.583 638.245L445.482 656.598L450.798 659.414C458.577 652.547 466.23 645.538 473.753 638.391C477.95 643.041 501.774 670.874 503.099 674.507C502.369 676.934 502.007 679.384 501.608 681.881C490.196 687.699 479.236 695.053 468.373 701.832C451.46 712.582 434.389 723.081 417.165 733.327C411.091 711.786 405.862 689.941 400.213 668.278C397.778 658.943 395.614 649.504 392.659 640.317C394.092 638.359 395.239 636.203 396.446 634.101Z"/><path d="M577.733 626.886C593.961 629.042 610.434 632.464 626.712 633.86L630.557 640.724C622.206 671.503 615.035 702.724 606.113 733.321C587.41 722.382 569.062 710.709 550.666 699.262C541.18 693.36 531.761 687.159 521.953 681.801C521.327 679.278 520.674 676.803 519.861 674.333C529.37 662.124 540.469 650.921 549.403 638.282C556.957 645.624 564.965 652.553 572.868 659.515L578.017 656.045C578.038 646.325 577.62 636.605 577.733 626.886Z"/><path fill="#B69653" d="M392.981 574.554L404.213 574.477C402.771 590.726 398.745 606.732 397.168 622.968C413.452 620.904 429.639 618.157 445.922 616.082C445.7 623.371 446.476 631.051 445.583 638.245C445.362 634.568 445.5 630.805 445.485 627.118C439.958 627.704 398.408 632.756 396.446 634.101C393.858 632.98 388.438 634.104 385.401 634.049C385.627 630.483 385.817 626.915 385.973 623.344C387.294 620.863 392.888 578.721 392.981 574.554Z"/><path fill="#B69653" d="M445.592 375.74C446.69 385.346 445.567 395.101 445.998 404.741C436.494 402.998 426.822 401.97 417.249 400.65C410.478 399.717 403.559 398.321 396.756 397.799C399.696 413.85 402.02 430.03 404.563 446.148L393.495 446.038C391.853 439.333 388.054 399.997 385.452 397.477C386.448 394.481 385.471 389.647 385.226 386.443C389.024 387.099 393.088 387.055 396.941 387.257C401.03 388.428 406.284 388.417 410.572 388.999C422.233 390.58 433.997 392.661 445.712 393.638C445.585 387.668 445.444 381.711 445.592 375.74Z"/><path fill="#B69653" d="M619.045 574.455L630.116 574.53C631.98 590.694 634.556 607.008 637.229 623.063C637.484 626.903 637.793 630.74 638.158 634.572C634.351 634.31 630.526 633.963 626.712 633.86C610.434 632.464 593.961 629.042 577.733 626.886L577.448 615.759C593.576 618.702 610.091 620.986 626.36 622.997C624.466 606.838 621.689 590.517 619.045 574.455Z"/><path fill="#B69653" d="M626.571 387.372C630.418 387.1 634.262 386.781 638.102 386.415C637.773 390.054 637.228 393.807 637.682 397.447C636.206 399.189 630.442 440.088 629.838 446.001L618.741 446.022C621.406 430.137 624.575 413.924 626.203 397.914C609.94 399.766 593.709 402.364 577.453 404.385L577.557 393.407C593.801 392.559 610.417 389.474 626.571 387.372Z"/><path fill="#B69653" d="M511.778 336.235C514.336 338.909 516.925 341.552 519.546 344.165C522.872 349.52 527.673 354.548 531.629 359.499C537.533 366.885 543.131 374.762 549.561 381.692L542.279 388.924C531.092 377.646 522.29 364.194 511.743 352.348C508.106 356.168 504.861 360.593 501.539 364.698C495.038 372.859 488.425 380.93 481.701 388.909C478.891 386.7 476.217 384.324 473.692 381.793C484.285 369.935 493.879 356.909 503.898 344.544C506.437 341.705 509.149 338.993 511.778 336.235Z"/><path fill="#B69653" d="M634.19 481.18C636.768 478.466 639.448 475.973 642.267 473.513C648.515 479.502 656.069 484.615 662.909 489.932C668.354 494.165 673.767 499.056 679.459 502.911C682.447 505.378 685.642 507.776 688.345 510.55C685.643 512.838 682.844 515.069 680.238 517.463C677.371 518.945 643.923 544.771 642.11 547.079C639.189 544.777 636.68 541.779 634.137 539.063C646.517 529.309 659.208 519.903 671.65 510.219C659.258 500.441 646.294 491.314 634.19 481.18Z"/><path fill="#B69653" d="M381.29 473.57C384.053 476.002 386.835 478.373 389.27 481.142C377.018 491.114 363.644 500.044 351.691 510.307C362.603 520.751 377.077 529.675 388.948 539.347L381.191 546.986C375.562 541.758 368.743 537.114 362.659 532.392C356.281 527.441 349.852 521.68 342.97 517.481L335.059 510.232C337.708 507.863 340.344 505.48 342.967 503.082C350.336 498.007 357.321 492.267 364.404 486.8C370.042 482.448 375.968 478.3 381.29 473.57Z"/><path fill="#B69653" d="M473.753 638.391C476.285 635.918 478.795 633.424 481.283 630.908C491.906 642.396 500.939 655.343 511.534 666.872C517.749 660.113 523.544 652.965 529.427 645.918C533.515 641.02 537.939 636.143 541.611 630.927C544.244 633.323 546.984 635.668 549.403 638.282C540.469 650.921 529.37 662.124 519.861 674.333C516.915 676.841 514.319 680.28 511.683 683.145C509.517 680.531 506.314 675.785 503.099 674.507C501.774 670.874 477.95 643.041 473.753 638.391Z"/><path fill="#B69653" d="M511.877 364.549C521.596 376.352 530.927 388.405 540.902 400.012C543.848 399.424 564.628 379.069 568.966 375.483C568.905 402.105 567.918 428.912 566.67 455.505C594.011 454.537 621.455 454.959 648.813 454.845C644.505 459.427 623.491 478.848 622.183 482.241C634.57 491.271 646.13 501.61 658.743 510.293C646.607 519.43 634.535 528.651 622.527 537.957C623.825 541.856 644.024 560.86 648.325 565.998C631.436 566.059 614.548 565.903 597.663 565.528C587.484 565.337 577.138 564.762 566.968 565.2L568.369 613.013C568.589 623.491 568.363 634.01 568.801 644.477C563.309 639.884 558.118 634.882 552.96 629.92C549.238 626.34 545.305 621.55 540.852 619.035C536.43 625.444 531.113 631.376 526.169 637.393C521.442 643.145 516.864 649.278 511.721 654.656C501.952 643.022 492.245 631.336 482.6 619.599C479.523 620.689 458.663 640.922 454.502 644.622C455.521 635.722 454.927 626.146 455.162 617.163C455.734 599.866 456.189 582.565 456.525 565.262C443.209 564.867 429.73 565.43 416.402 565.657L375.162 565.955C380.746 559.522 397.697 544.17 400.79 538.316C389.264 528.455 376.622 519.763 364.776 510.268C377.052 501.295 388.906 491.609 400.817 482.157C399.947 478.982 378.692 458.684 374.773 454.497C402.039 454.325 429.35 455.375 456.623 455.54C456.002 428.923 454.576 402.3 454.587 375.675C463.71 383.971 472.712 392.745 482.385 400.393C491.461 388.301 502.363 376.521 511.877 364.549Z"/><path d="M511.877 364.549C521.596 376.352 530.927 388.405 540.902 400.012C537.344 404.507 532.658 408.475 528.541 412.482C522.982 417.892 517.51 423.533 511.71 428.679L492.819 410.188C489.49 406.948 486.047 403.237 482.385 400.393C491.461 388.301 502.363 376.521 511.877 364.549Z"/><path d="M511.62 590.946C521.268 600.402 530.824 609.978 540.852 619.035C536.43 625.444 531.113 631.376 526.169 637.393C521.442 643.145 516.864 649.278 511.721 654.656C501.952 643.022 492.245 631.336 482.6 619.599C491.646 609.619 502.303 600.764 511.62 590.946Z"/><path d="M400.817 482.157C405.549 485.953 409.858 490.701 414.185 494.968C419.264 499.974 424.777 505.007 429.459 510.372C425.799 513.96 402.494 538.087 400.79 538.316C389.264 528.455 376.622 519.763 364.776 510.268C377.052 501.295 388.906 491.609 400.817 482.157Z"/><path d="M622.183 482.241C634.57 491.271 646.13 501.61 658.743 510.293C646.607 519.43 634.535 528.651 622.527 537.957C619.2 535.67 616.027 531.831 613.141 528.969C606.73 522.667 600.358 516.323 594.028 509.94C603.699 501.014 612.585 491.249 622.183 482.241Z"/><path fill="white" d="M463.215 395.175C466.493 396.786 505.603 435.976 511.682 442.133C527.397 426.009 544.073 410.687 560.253 395.018C559.924 418.017 558.574 441.07 557.733 464.063L627.922 463.325C611.957 478.88 596.112 494.596 579.926 509.92C589.543 518.765 598.789 528.069 608.064 537.271C614.831 543.986 621.778 550.524 628.202 557.575C604.805 557.17 581.194 557.427 557.84 556.079C558.272 571.389 559.064 586.699 559.704 602.001C560.019 609.537 560.914 617.622 560.33 625.126C543.897 609.334 527.601 593.4 511.442 577.327C505.79 583.61 499.552 589.358 493.561 595.315C483.638 605.33 473.588 615.219 463.415 624.98C463.583 602.023 464.691 579.096 465.521 556.157C442.392 557.401 419.031 556.884 395.857 557.431C401.479 551.077 407.717 545.21 413.756 539.254C423.613 529.508 433.546 519.839 443.556 510.248C427.194 494.947 411.117 478.995 395.379 463.043C403.926 463.724 412.592 463.603 421.164 463.72L465.546 464.162C465.195 441.187 463.826 418.159 463.215 395.175Z"/><path d="M615.731 407.241L616.094 407.205L616.637 407.732C616.399 415.838 612.066 438.171 610.224 446.641C599.003 446.336 587.687 446.797 576.462 447.03C575.828 446.882 576.203 447.035 575.499 446.286L576.484 412.678C589.588 411.087 602.616 408.598 615.731 407.241Z"/><path d="M575.716 573.49C587.398 573.476 599.093 573.988 610.783 574.021C612.468 587.262 614.993 600.387 616.876 613.603C604.743 612.841 589.026 609.573 576.704 607.599C576.474 596.227 575.805 584.864 575.716 573.49Z"/><path d="M435.8 573.763L447.567 573.524C447.476 584.941 446.961 596.377 446.608 607.79C436.716 609.356 426.806 610.812 416.881 612.16C413.357 612.579 409.842 613.078 406.341 613.657C408.946 600.525 410.781 587.15 412.886 573.926C420.511 574.114 428.172 573.865 435.8 573.763Z"/><path d="M406.687 407.24C419.897 408.43 433.616 410.988 446.704 413.158C446.906 424.416 447.198 435.672 447.582 446.925C436.132 446.942 424.681 446.599 413.227 446.621C410.943 433.517 408.492 420.42 406.687 407.24Z"/><path d="M709.022 626.573C711.181 624.813 714.918 624.108 717.581 623.342C716.933 651.013 715.761 678.816 714.545 706.471L655.443 709.133C646.969 709.534 638.447 710.34 629.974 710.523C630.793 707.843 631.575 705.164 632.62 702.562C634.64 702.489 636.785 702.559 638.753 702.076C636.947 702.126 634.985 702.363 633.272 701.728C634.768 693.25 637.773 684.799 640.045 676.475C642.895 666.034 645.222 655.237 648.788 645.032C658.445 642.628 668.028 639.39 677.556 636.48C688.029 633.28 698.726 630.293 709.022 626.573Z"/><path fill="white" d="M709.022 626.573C711.181 624.813 714.918 624.108 717.581 623.342C716.933 651.013 715.761 678.816 714.545 706.471L655.443 709.133C646.969 709.534 638.447 710.34 629.974 710.523C630.793 707.843 631.575 705.164 632.62 702.562C634.64 702.489 636.785 702.559 638.753 702.076L707.019 698.883C707.145 674.781 708.946 650.692 709.022 626.573Z"/><path d="M308.351 314.44C320.217 313.331 332.328 313.307 344.24 312.709C360.463 311.894 376.699 310.631 392.942 310.35C392.277 313.082 391.65 315.971 390.379 318.487C388.048 324.414 386.732 330.916 385.016 337.06C381.378 349.929 377.86 362.831 374.463 375.766C354.359 381.756 334.324 387.975 314.363 394.422C314.399 392.088 314.507 389.732 314.434 387.399C313.949 389.793 314.013 392.287 313.948 394.723L305.964 397.727C306.02 387.136 306.752 376.471 307.052 365.876C307.536 348.734 307.726 331.575 308.351 314.44Z"/><path fill="white" d="M308.351 314.44C320.217 313.331 332.328 313.307 344.24 312.709C360.463 311.894 376.699 310.631 392.942 310.35C392.277 313.082 391.65 315.971 390.379 318.487C365.739 318.876 341.13 320.972 316.514 321.984C315.383 343.696 314.864 365.658 314.434 387.399C313.949 389.793 314.013 392.287 313.948 394.723L305.964 397.727C306.02 387.136 306.752 376.471 307.052 365.876C307.536 348.734 307.726 331.575 308.351 314.44Z"/><path d="M630.006 310.108C658.191 311.502 686.403 313.476 714.599 314.511C715.425 330.146 715.58 345.76 716.105 361.399C716.512 373.555 717.313 385.699 717.688 397.855C714.977 396.918 712.272 395.936 709.542 395.058C709.489 392.334 709.566 389.563 709.07 386.878C708.981 389.421 709.094 391.993 709.124 394.538C689.338 387.548 669.014 381.826 649.013 375.451C646.83 367.484 632.805 321.106 633.342 318.322C631.251 316.826 630.652 312.61 630.006 310.108Z"/><path fill="white" d="M630.006 310.108C658.191 311.502 686.403 313.476 714.599 314.511C715.425 330.146 715.58 345.76 716.105 361.399C716.512 373.555 717.313 385.699 717.688 397.855C714.977 396.918 712.272 395.936 709.542 395.058C709.489 392.334 709.566 389.563 709.07 386.878L706.805 321.93C682.39 321.641 657.757 319.419 633.342 318.322C631.251 316.826 630.652 312.61 630.006 310.108Z"/><path d="M305.839 623.593C308.495 624.679 311.191 625.314 313.976 625.972C313.962 628.738 314.046 631.341 314.432 634.088C314.427 631.749 314.448 629.408 314.344 627.07C324.274 629.356 334.062 632.849 343.802 635.844C354.075 639.002 364.504 641.812 374.685 645.247C379.724 664.245 386.229 683.241 390.164 702.466L390.858 702.835C392.139 705.194 392.681 707.946 393.384 710.526C383.531 710.499 373.556 709.54 363.706 709.038L309.058 706.461C307.729 693.233 307.793 679.585 307.427 666.287L305.839 623.593Z"/><path fill="white" d="M305.839 623.593C308.495 624.679 311.191 625.314 313.976 625.972C313.962 628.738 314.046 631.341 314.432 634.088C315.007 655.658 315.594 677.412 316.881 698.946C341.336 699.73 365.727 701.44 390.164 702.466L390.858 702.835C392.139 705.194 392.681 707.946 393.384 710.526C383.531 710.499 373.556 709.54 363.706 709.038L309.058 706.461C307.729 693.233 307.793 679.585 307.427 666.287L305.839 623.593Z"/><path d="M459.429 728.251L495.983 706.559C501.261 703.443 506.483 700.01 511.921 697.2C523.214 704.019 534.556 710.755 545.947 717.41C551.991 720.976 558.046 725.018 564.324 728.134L571.642 732.052C566.045 737.8 559.314 742.851 553.293 748.193L511.789 784.928C504.348 778.924 497.274 772.295 490.1 765.967L451.902 732.298L459.429 728.251Z"/><path fill="white" d="M564.324 728.134L571.642 732.052C566.045 737.8 559.314 742.851 553.293 748.193L511.789 784.928C504.348 778.924 497.274 772.295 490.1 765.967L451.902 732.298L459.429 728.251C477.116 743.304 494.33 758.985 511.727 774.377C529.783 759.657 546.584 743.259 564.324 728.134Z"/><path d="M511.736 233.672C520.798 242.241 530.365 250.236 539.628 258.581C550.384 268.27 560.898 278.366 572.235 287.372C569.82 288.586 566.581 290.657 563.859 290.766C557.454 293.828 551.301 297.87 545.176 301.467L511.535 321.364C503.892 316.246 495.714 311.702 487.785 307.037C478.437 301.538 469.136 295.883 459.626 290.676C456.772 289.756 454.264 288.422 451.701 286.88C472.15 269.72 492.048 251.7 511.736 233.672Z"/><path fill="white" d="M511.736 233.672C520.798 242.241 530.365 250.236 539.628 258.581C550.384 268.27 560.898 278.366 572.235 287.372C569.82 288.586 566.581 290.657 563.859 290.766C558.429 285.187 551.915 280.197 546.076 275.002C534.692 264.764 523.224 254.622 511.672 244.576L459.626 290.676C456.772 289.756 454.264 288.422 451.701 286.88C472.15 269.72 492.048 251.7 511.736 233.672Z"/><path d="M282.771 452.569C284.185 454.892 285.319 457.318 286.476 459.775C297.436 476.317 307.318 493.611 318.119 510.27C307.759 526.952 297.047 543.407 286.906 560.224C285.761 562.718 284.493 565.156 283.259 567.607C263.905 549.269 246.087 529.156 227.184 510.332L282.771 452.569Z"/><path fill="white" d="M282.771 452.569C284.185 454.892 285.319 457.318 286.476 459.775C277.448 469.954 267.661 479.546 258.221 489.35C251.697 496.125 245.324 503.621 238.298 509.85C254.153 526.961 271.019 543.148 286.906 560.224C285.761 562.718 284.493 565.156 283.259 567.607C263.905 549.269 246.087 529.156 227.184 510.332L282.771 452.569Z"/><path d="M740.44 452.823C759.418 471.343 776.997 491.327 795.737 510.084L740.493 567.652C739.417 565.954 736.687 562.558 736.672 560.566C726.326 543.642 715.449 527.087 704.894 510.301C715.007 493.227 726.253 476.794 736.723 459.936L740.44 452.823Z"/><path fill="white" d="M740.44 452.823C759.418 471.343 776.997 491.327 795.737 510.084L740.493 567.652C739.417 565.954 736.687 562.558 736.672 560.566C751.583 543.387 768.882 526.641 784.732 510.177C777.029 502.527 769.715 494.435 762.19 486.607C753.676 477.749 744.926 469.086 736.723 459.936L740.44 452.823Z"/></svg>